<svg width="64" height="64" viewBox="0 0 64 64" fill="none" xmlns="http://www.w3.org/2000/svg">
  <!-- Default LeadWave Logo - Replace this file with your custom logo -->
  <rect width="64" height="64" rx="16" fill="url(#gradient)"/>
  <path d="M18 32c0 7.732 7.164 14 16 14 1.967 0 3.84-.33 5.566-.94L46 47l-2.676-6.246C45.014 38.534 46 35.434 46 32c0-7.732-7.164-14-16-14s-16 6.268-16 14zM24 28h-4v4h4v-4zm12 0h-4v4h4v-4zm-6 0h4v4h-4v-4z" fill="white"/>
  <defs>
    <linearGradient id="gradient" x1="0" y1="0" x2="64" y2="64" gradientUnits="userSpaceOnUse">
      <stop stop-color="#3B82F6"/>
      <stop offset="1" stop-color="#1D4ED8"/>
    </linearGradient>
  </defs>
</svg>
